<svg width="40" height="40" viewBox="0 0 40 40" fill="none" xmlns="http://www.w3.org/2000/svg">
  <g>
    <path d="M20.002 2.82367C29.489 2.82367 37.1803 10.5149 37.1803 20.002C37.1803 29.489 29.489 37.1803 20.002 37.1803C10.5149 37.1803 2.82367 29.489 2.82367 20.002C2.83548 10.5189 10.5189 2.83548 20.002 2.82367ZM20.002 0C8.9554 0 0 8.9554 0 20.002C0 31.0485 8.9554 40.0039 20.002 40.0039C31.0485 40.0039 40.0039 31.0485 40.0039 20.002C40.0039 8.9554 31.0446 0 20.002 0Z" fill="currentColor"/>
    <path d="M25.56 16.4892C26.7215 16.4892 27.663 15.5476 27.663 14.3862C27.663 13.2247 26.7215 12.2832 25.56 12.2832C24.3986 12.2832 23.457 13.2247 23.457 14.3862C23.457 15.5476 24.3986 16.4892 25.56 16.4892Z" fill="currentColor"/>
    <path d="M13.6465 29.1858V11.2593H16.7695V26.3307H25.7445V29.1819H13.6465V29.1858Z" fill="currentColor"/>
  </g>
</svg>
